<?xml version="1.0" encoding="utf-8"?>
<!-- Generator: Adobe Illustrator 25.2.1, SVG Export Plug-In . SVG Version: 6.00 Build 0)  -->
<svg version="1.1" id="Layer_1" xmlns="http://www.w3.org/2000/svg" xmlns:xlink="http://www.w3.org/1999/xlink" x="0px" y="0px"
	 viewBox="0 0 1920 1080" style="enable-background:new 0 0 1920 1080;" xml:space="preserve">
<style type="text/css">
	.st0{fill:#FEFEFE;}
	.st1{fill:#198654;}
	.st2{fill:#FAFAF6;}
	.st3{fill:#0503A1;}
	.st4{fill:#0504A1;}
	.st5{fill:#0503A3;}
	.st6{fill:#0503A0;}
	.st7{fill:#02091E;}
	.st8{fill:#06049E;}
	.st9{fill:#06049A;}
	.st10{fill:#0F2728;}
	.st11{fill:#0B099D;}
	.st12{fill:#E4E306;}
	.st13{fill:#F0EE05;}
	.st14{fill:#0E0C97;}
	.st15{fill:#0E0C9B;}
	.st16{fill:#E4E209;}
	.st17{fill:#EEEC05;}
	.st18{fill:#F3F104;}
	.st19{fill:#EBE905;}
	.st20{fill:#F9F705;}
	.st21{fill:#EDEB05;}
	.st22{fill:#020C39;}
	.st23{fill:#070642;}
	.st24{fill:#AFAFC5;}
	.st25{fill:#FBFBF7;}
	.st26{fill:#FEFD09;}
	.st27{fill:#027E03;}
	.st28{fill:#FDFC0A;}
	.st29{fill:#09079C;}
	.st30{fill:#09079D;}
	.st31{fill:#151509;}
	.st32{fill:#1B1A12;}
	.st33{fill:#11110D;}
	.st34{fill:#0E1605;}
	.st35{fill:#BBBB42;}
	.st36{fill:#505087;}
	.st37{fill:#969694;}
	.st38{fill:#31390A;}
	.st39{fill:#7D7D63;}
	.st40{fill:#05039E;}
	.st41{fill:#E7825A;}
	.st42{fill:#06049F;}
	.st43{fill:#110F96;}
	.st44{fill:#F9FCFC;}
	.st45{fill:#FAFDFD;}
	.st46{fill:#EEEEEF;}
	.st47{fill:#414066;}
	.st48{fill:#F8F8F8;}
	.st49{fill:#E0E0E0;}
	.st50{fill:#D9D9D9;}
	.st51{fill:#F5F5F5;}
	.st52{fill:#BFBFBF;}
	.st53{fill:#DBDBDB;}
	.st54{fill:#221F22;}
	.st55{fill:#FAFEF5;}
	.st56{fill:#95976C;}
	.st57{fill:#F7F7F7;}
	.st58{fill:#F0F0F0;}
	.st59{fill:#F4F4F4;}
	.st60{fill:#EFEFEF;}
	.st61{fill:#EBEBEB;}
	.st62{fill:#CBCBCB;}
	.st63{fill:#E5E5E5;}
</style>
<g>
	<g>
		<path class="st0" d="M948.2,516c23.6,0,47.2,0,70.8,0c0.8,0,1,0.2,1,1c0,15.3,0,30.7,0,46c0,0.8-0.2,1-1,1c-23.6,0-47.2,0-70.8,0
			c-0.4-0.5-0.4-1-0.4-1.6c0-14.9,0-29.9,0-44.8C947.9,517.1,947.8,516.5,948.2,516z"/>
		<path class="st1" d="M948.2,516c0,16,0,32,0,48c-15.8,0-31.5,0-47.3,0c-0.8,0-1-0.2-1-1c0-15.3,0-30.7,0-46c0-0.8,0.2-1,1-1
			C916.7,516,932.5,516,948.2,516z"/>
		<path class="st2" d="M933.4,527.5c0.1,0.2,0.2,0.3,0.3,0.5c-0.4,1.1-1.6,1-2.3,1.6c-0.2,0.1-0.4,0.2-0.6,0.3
			c-2.8,1.3-5.5,2.7-8.2,4.1c-0.4,0.2-0.9,0.4-1.1,0.8c-0.3,1.1-0.1,2.2-0.1,3.3c0.1,1.7-0.2,3.4,0.1,5.1c0,0.1,0.1,0.3,0.1,0.4
			c0.1,1.3,0.1,2.7,0,4c0,0.6,0.1,1.2-0.1,1.7c-0.1,0.6-0.4,1-1,0.6c-0.4-0.4-0.3-1-0.3-1.5c0-1.9,0-3.9,0-5.8c0-2.1,0-4.3,0-6.4
			c0-0.4,0.1-0.8-0.2-1.1c-0.7-0.2-1.1,0.4-1.6,0.6c-0.7,0.3-1.4,0.7-2.1,0.9c-0.1,0.1-0.2,0.1-0.3,0.1c-0.8,0.3-1.4,0.9-2.2,1.2
			c-0.4,0.2-0.8,0.4-1.2,0.2c-0.1-0.2-0.1-0.3,0-0.5c1-0.8,2.2-1.2,3.2-1.9c0.1-0.1,0.3-0.2,0.4-0.3c1.4-0.8,2.9-1.3,4.1-2.3
			c0.3-1.2,0.2-2.3,0-3.4c-0.1-0.6-0.1-1.3-0.1-1.9c0-0.2,0-0.4,0-0.6c0-0.2,0.1-0.4,0.2-0.5c0.1-0.1,0.2-0.2,0.3-0.2
			c0.1,0,0.1,0,0.2,0c0.1,0,0.2,0.1,0.3,0.2c0.1,0.2,0.1,0.4,0.1,0.5c0,1.4,0,2.8,0,4.2c0,1.2,0.1,1.3,1.2,0.8
			c2.5-1.2,4.9-2.4,7.4-3.6c0.2-0.1,0.4-0.2,0.6-0.3C931.4,528.2,932.2,527.3,933.4,527.5z"/>
		<path class="st3" d="M922,521.5c2.1-1.7,2.4-1.7,4.6-0.3c0,1.7-0.3,3.4-1.2,4.9c-0.9,0.2-1.9,0.6-2.8-0.1
			C922.3,524.6,921.7,523.1,922,521.5z"/>
		<path class="st4" d="M920.4,526.8c0,0.1-0.1,0.3-0.1,0.4c-0.9,0.8-1.6,1.9-2.9,2.2c-0.8-0.2-1.7-0.4-2.1-1.3
			c-0.1-0.2-0.1-0.4,0-0.5c1.3-1.8,2.8-3.4,4.7-4.8c0.1,0.9,0.2,1.6,0.2,2.3C920.9,525.6,920.8,526.2,920.4,526.8z"/>
		<path class="st5" d="M927.4,521.8c1.5,0.9,2.8,2.1,4.1,3.3c-0.2,1.2-1.2,1.8-2.1,2.5c-1.4,0.1-2.8-0.7-3.2-1.8
			c0.1-1.1,0.4-2.1,0.6-3.1C926.9,522.3,927,521.9,927.4,521.8z"/>
		<path class="st6" d="M912.7,533.9c-0.2-1.4,1-4.3,2.2-5.1c1-0.1,1.7,0.4,2.3,1.1c-0.2,1.5-0.6,3-1.5,4.2
			C914.7,534.3,913.6,534.7,912.7,533.9z"/>
		<path class="st7" d="M936.9,559c0.1,0.6,0,1-0.8,1c-7.8,0-15.5,0-23.3,0c-0.7,0-0.9-0.2-0.9-0.9c0-5-0.1-9.9,0.1-14.9
			c0-1.5,0-2.9,0.2-4.4c0.1-0.1,0.3-0.1,0.4-0.1c0.1,0.1,0.2,0.2,0.2,0.4c-0.1,2.5,0.1,5-0.1,7.5c0,0.2-0.1,0.4-0.1,0.6
			c-0.1,3.1,0,6.2,0,9.4c0,0.5-0.1,1.1,0.3,1.5c0.4,0.3,0.8,0.2,1.3,0.2c6.9,0,13.9,0,20.8,0C935.7,559.3,936.3,559.1,936.9,559z"/>
		<path class="st8" d="M934.8,529.6c0.7,1.4,1.3,2.8,1.5,4.3c-0.8,0.7-1.8,0.4-2.7,0.3c-1.2-0.7-1.2-1.9-1.3-3
			C932.9,530.4,933.6,529.6,934.8,529.6z"/>
		<path class="st9" d="M936.5,534.8c0.4,1.2,0.1,2.5,0.2,3.8c-1.6,0-2.8-0.8-3.8-1.9c-0.1-0.7-0.3-1.4,0.3-2.1
			C934.3,534.3,935.4,534.1,936.5,534.8z"/>
		<path class="st10" d="M936.9,559c-0.2,0.4-0.5,0.7-1.1,0.7c-7.6,0-15.2,0-22.9,0c-0.3,0-0.6,0-0.8-0.2c0.6-0.5,1.3-0.4,1.9-0.4
			c6.8,0,13.5,0,20.3,0c0.9,0,1.7-0.1,1.7-1.3c0.3-2.5,0.1-5.1,0.1-7.6c0-0.8,0-1.7,0-2.5c0-1.5,0-3,0-4.5c0-0.5-0.1-1,0.4-1.3
			c0.2,0.2,0.2,0.5,0.2,0.8C936.9,548.1,936.9,553.5,936.9,559z"/>
		<path class="st11" d="M933.4,527.5c-0.9,0.4-1.9,0.8-2.8,1.2c-0.4-0.1-0.8-0.3-0.9-0.8c0.7-0.8,1.1-2,2.3-2.2
			C932.6,526.2,933.1,526.8,933.4,527.5z"/>
		<path class="st12" d="M927.4,521.8c-0.3,1.4-0.6,2.7-1,4.1c-0.2,0.5-0.5,1.1-1,0.2c0.4-1.6,0.8-3.2,1.2-4.8
			C927,521.3,927.2,521.5,927.4,521.8z"/>
		<path class="st13" d="M922,521.5c0.3,1.5,0.6,3.1,0.8,4.6c-0.2,0.4-0.5,0.4-0.9,0.3c-0.7-1.4-0.9-2.9-0.7-4.5
			C921.5,521.7,921.8,521.6,922,521.5z"/>
		<path class="st14" d="M921.3,522c0.2,1.5,0.5,2.9,0.7,4.4c-0.2,0.6-0.6,0.6-1.1,0.4l-0.1,0c-0.4-1.4-0.2-2.8-0.2-4.3
			C920.8,522.2,921,522.1,921.3,522z"/>
		<path class="st15" d="M931.2,529.4c0.8-0.5,1.6-0.9,2.4-1.4c0.5,0,0.6,0.5,0.7,0.9c-0.6,0.9-1.4,1.5-2.5,1.6
			C931.4,530.3,931,530,931.2,529.4z"/>
		<path class="st16" d="M933.2,536.8c1.2,0.6,2.3,1.3,3.5,1.7c0,0.3,0,0.6,0,0.9c-0.1,0.1-0.2,0.1-0.3,0.1c-0.5-0.1-0.9-0.2-1.3-0.5
			c-0.7-0.5-1.7-0.6-2.3-1.3C932.7,537.5,932.4,537,933.2,536.8z"/>
		<path class="st17" d="M932,525.8c-0.8,0.6-1.3,1.6-2.2,2.1c-0.7,0.2-0.6-0.2-0.5-0.6c0.8-0.6,1.5-1.4,2.2-2.2
			C931.7,525.3,931.9,525.5,932,525.8z"/>
		<path class="st18" d="M936.5,534.8c-1.1,0-2.2,0-3.3,0c-0.3-0.3-0.3-0.6,0.1-0.8c1,0,2,0,3,0C936.6,534.2,936.8,534.4,936.5,534.8
			z"/>
		<path class="st19" d="M932,530.4c0.8-0.5,1.6-1,2.4-1.5c0.3,0.2,0.5,0.4,0.4,0.7c-0.8,0.5-1.6,1-2.4,1.6
			C931.9,531.1,931.6,530.9,932,530.4z"/>
		<path class="st20" d="M912.7,533.9c1,0,2.1,0,3.1,0c0.3,0.4,0.2,0.6-0.1,0.9c-1,0.3-1.9,0.2-2.9,0.1c-0.1-0.1-0.2-0.1-0.3-0.3
			C912.5,534.4,912.4,534.1,912.7,533.9z"/>
		<path class="st21" d="M917.1,530c-0.7-0.4-1.5-0.8-2.2-1.1c-0.2-0.5,0-0.7,0.5-0.7c0.7,0.4,1.5,0.8,2.2,1.1
			C917.8,529.7,917.5,529.9,917.1,530z"/>
		<path class="st22" d="M936.5,539.5c0.1,0,0.2,0,0.2-0.1c0,0.8,0,1.6,0,2.4c0,1.9,0,3.9-0.1,5.8c-0.2,0-0.3,0-0.3-0.2
			c-0.3-0.9-0.1-1.9-0.2-2.8c0-0.9,0.1-1.8-0.2-2.7C936.2,541.2,936,540.3,936.5,539.5z"/>
		<path class="st23" d="M912.5,539.7c-0.1,0-0.1,0-0.2,0c0-1.7-0.3-3.4,0.2-5.1c0,0,0,0.1,0,0.1c0.6,1,0.5,2,0.1,3.1
			c0,0.2,0,0.3,0,0.5C912.9,538.8,912.9,539.3,912.5,539.7z"/>
		<path class="st24" d="M920.7,522.6c0.4,1.4,0.2,2.8,0.2,4.3c-0.1,0-0.1,0-0.2,0c-0.3-1.3-0.2-2.7-0.1-4
			C920.6,522.7,920.7,522.6,920.7,522.6z"/>
		<path class="st25" d="M920.6,522.8c0,1.3,0,2.7,0.1,4c-0.1,0-0.2,0-0.2,0c0-0.6-0.1-1.1-0.1-1.7
			C920.6,524.3,920.1,523.5,920.6,522.8z"/>
		<path class="st6" d="M936.5,547.7c0.1,0,0.1,0,0.2,0c0,3.1,0,6.1,0.1,9.2c0,0.3,0.1,0.7-0.3,0.9c-0.2,0.2-0.6,0.3-0.9,0.3
			c-1.9,0-3.7,0.2-5.6-0.1c-0.8-0.8,0.2-0.8,0.5-1.1c0.6,0,1.2,0.1,1.9-0.1c-0.4,0-0.8,0.1-1.2-0.2c-0.1-0.7,0.4-0.9,0.9-1.1
			c0.5,0.2,1,0.1,1.5-0.1c-0.4,0-0.8,0.2-1.1,0c0-1,0.8-1.4,1.3-2c0.1,0,0.2,0,0.3,0.1c0.3,0.2,0.6,0.1,0.8-0.1
			c0.1-0.2,0-0.2-0.1-0.3c-0.5-0.7,0.1-1.1,0.5-1.5c0.6-0.6,0.6-0.9-0.3-0.9c-0.5-0.2-0.2,0.3-0.3,0.5c-0.2,0.4-0.3,0.9-0.8,1
			c-0.2,0-0.4-0.2-0.4-0.2c-0.2,0.3,0.2,0.5,0.2,0.8c0,0.6-0.3,1-0.8,1.2c-0.4,0-0.4-0.3-0.6-0.5c0,0.4,0.2,0.7,0.2,1
			c-0.4,0.8-0.8,1.7-1.8,1.9c-0.3-0.2-0.3-0.6-0.4-1c0,0.4,0.2,0.8,0.3,1.2c-0.2,0.7-0.8,1-1.4,1.3c-0.4,0.1-0.7,0.1-1.1,0
			c-0.1,0-0.2-0.1-0.3-0.2c-0.4-2.1-1.1-4.2,0.3-6.2c0.4-0.6,0.5-1.5,0.7-2.2c-0.5,1.1-0.8,2.4-2.3,2.6c-0.3,0-0.2,0.2-0.1,0.3
			c0.4,0.6,0.1,1.1-0.1,1.6c-0.6,1.3-0.5,2.7-1.3,3.9c-0.1,0.1-0.2,0.1-0.3,0.2c-0.1,0-0.2,0-0.4,0c-0.1,0-0.2-0.1-0.3-0.1
			c-0.9-1.4-1.7-5.2-1.3-5.8c-1.2,0-1.8-0.6-2-1.7c0-0.1,0-0.1,0.1-0.2c0.5,0,0.8-0.1,0.8-0.7c-0.1-0.6,0-1.1,0-1.7
			c0.4-0.5,1-0.4,1.5-0.4c4.1,0,8.1,0,12.2,0C935.5,547.3,936,547.3,936.5,547.7z"/>
		<path class="st26" d="M921.1,534.4c3.2-1.6,6.4-3.1,9.6-4.7c0.5-0.1,0.7,0.4,0.8,0.7c1.9,3.3,1.9,6.6,0,9.9
			c-0.4,0.6-0.9,1.1-1.6,1.4c-0.3,0.1-0.6,0.2-0.9-0.1c-0.3-0.3-0.2-0.6,0-0.9c0.5-0.7,1-1.4,1.3-2.2c0.3-0.6,0.4-1.2,0-1.8
			c-0.8,0.1-1,0.7-1.3,1.2c-0.3,0.5-0.6,1-1.1,1.4c-0.6,0.6-1.2,1.1-2.2,0.5c-0.2-0.2-0.5-0.2-0.8,0c-0.2,0.2,0,0.4,0.2,0.6
			c0.2,0.3,0.3,0.7,0.1,1c-0.6,0.9-1.2,1.9-2.3,2.3c-0.8-0.2-1.6-0.1-2.1-0.9c0-1.6,0-3.2,0-4.9
			C921.1,536.8,920.9,535.6,921.1,534.4z"/>
		<path class="st27" d="M936.5,547.7c-5.1,0-10.2,0-15.3,0.1c0-1.4,0-2.8,0-4.1c0.6-0.4,1.2,0.1,1.8,0.1c0.3,1,0.9,1.1,1.8,0.8
			c0.6-0.2,1.3-0.4,1.9-0.7c0.6-0.3,1.1-0.2,1.3,0.6c0.2,0.6,0.4,1.3,0.8,2c0.5-1,0.9-1.9,1.4-2.8c0.3-0.5,0.5-1.2,1.3-1.3
			c0.4,0,0.8,0.2,1.2,0.3c0.9,0.2,1.8,0.3,2.5-0.5c0.2-0.2,0.5-0.4,0.9-0.3c0.7,0.1,0.5,0.6,0.5,1
			C936.5,544.5,936.5,546.1,936.5,547.7z"/>
		<path class="st26" d="M930.1,529c-2.8,1.4-5.6,2.8-8.4,4.2c-0.7,0.3-0.7,0-0.7-0.5c0-1.8,0-3.5,0-5.3c2.2-1.5,4.5-1.2,6.8-0.2
			C928.7,527.5,929.7,527.8,930.1,529z"/>
		<path class="st28" d="M920.4,533.7c-1.4,0.7-2.8,1.5-4.2,2.2c-0.3-0.1-0.4-0.4-0.4-0.7c0.4-2.7,1-5.3,3.4-7.1
			c0.3-0.2,0.6-0.6,1.1-0.4c0,0.7,0.1,1.4,0.1,2.1C920.6,531.2,920.7,532.5,920.4,533.7z"/>
		<path class="st26" d="M916.2,536.5c1.2-0.6,2.4-1.2,3.7-1.8c0.7-0.1,0.5,0.5,0.5,0.8c0,2.3,0.1,4.5,0,6.8c-0.3,0.4-0.7,0.3-1,0
			c-1.8-1.4-2.9-3.2-3.2-5.5C916,536.7,916.1,536.6,916.2,536.5z"/>
		<path class="st29" d="M912.6,537.9c0-1-0.1-2-0.1-3.1c1.1,0,2.1,0,3.2,0c0.2,0.5,0.3,0.9,0.1,1.4
			C914.7,536.8,913.7,537.4,912.6,537.9z"/>
		<path class="st30" d="M912.5,539.7c0-0.5,0-0.9,0-1.4c1.1-0.5,2.1-1.1,3.2-1.6c0.4,0.7,0.9,1.4,0.4,2.2c-1.1,0.5-2.1,1.3-3.4,0.8
			C912.7,539.8,912.6,539.8,912.5,539.7z"/>
		<path class="st31" d="M931.3,540.3c1.6-2.6,2-5.4,0.9-8.3c-0.3-0.8-0.7-1.7-1.4-2.3c0.1-0.2,0.3-0.2,0.5-0.3
			c0.2,0.4,0.4,0.8,0.7,1c0,0.3,0.1,0.6,0.4,0.8c0.3,0.9,0.4,1.9,0.9,2.8c-0.3,0.2-0.2,0.5-0.1,0.8c0,0.7,0,1.4,0,2.1
			c-0.3,0.3-0.3,0.6-0.1,1c-0.3,0.9-0.6,1.8-1.3,2.5C931.6,540.4,931.4,540.4,931.3,540.3z"/>
		<path class="st32" d="M930.1,529c-2.2-2.4-5.7-3-9.1-1.6c0-0.2,0-0.3,0-0.5c0.4-0.1,0.7-0.3,1.1-0.4c0.3,0,0.6,0,0.8-0.2
			c0.8,0,1.7-0.1,2.5-0.1c0.4,0.4,0.7,0.2,1-0.2c0.7,1,1.8,1.2,2.9,1.4c-0.1,0.4,0.1,0.6,0.5,0.6c0.2,0.3,0.5,0.5,0.7,0.8
			C930.4,529,930.2,528.9,930.1,529z"/>
		<path class="st33" d="M915.8,536.2c0-0.5-0.1-0.9-0.1-1.4c0.1-0.3,0.1-0.5,0.2-0.8c0.2-1.4,0.8-2.7,1.3-4c0.3-0.2,0.5-0.4,0.4-0.7
			c1-0.5,1.7-1.6,2.8-2c0,0.2,0,0.3,0,0.5c-1.6,0.7-2.6,1.9-3.3,3.5c-0.6,1.5-1.1,3.1-0.9,4.7C916.1,536.1,915.9,536.2,915.8,536.2z
			"/>
		<path class="st34" d="M916.1,538.8c0.3-0.7-0.3-1.3-0.3-2c0.1-0.1,0.3-0.2,0.4-0.2c0.5,2.5,1.5,4.6,3.8,5.9
			c0.2,0.1,0.3,0.2,0.3,0.4c-0.1,0.1-0.1,0.2-0.2,0.2c-1.2-0.1-1.7-1-2.4-1.7C916.9,540.6,916.4,539.7,916.1,538.8z"/>
		<path class="st35" d="M920.3,542.7c-0.1-0.1-0.2-0.2-0.3-0.3c0.4-1.9,0.1-3.8,0.2-5.7c0-0.7,0.4-1.4-0.3-2
			c0.6-0.1,0.6-0.1,0.6,0.5c0,2.5,0,5,0,7.5C920.4,542.7,920.3,542.7,920.3,542.7z"/>
		<path class="st36" d="M920.3,542.7c0,0,0.1,0,0.1,0c0,2.5,0,5,0,7.4c0,0,0,0,0,0c-0.9-0.4-0.7-1.1-0.7-1.8c0-0.2,0.1-0.4,0.1-0.6
			c0-0.1,0-0.3,0-0.4c0-1,0-2,0-3.1c0-0.5,0-1,0.4-1.3C920.2,542.8,920.2,542.8,920.3,542.7z"/>
		<path class="st37" d="M921.1,538.1c0,1.7,0.1,3.3,0.1,5c0,0.1,0,0.2-0.1,0.3c-0.3-1.8-0.2-3.5-0.2-5.3
			C921,538,921.1,538,921.1,538.1z"/>
		<path class="st24" d="M920.4,533.7c0-1.3,0-2.6,0.1-3.9C920.7,531.2,920.9,532.5,920.4,533.7z"/>
		<path class="st38" d="M921.1,543.4c0-0.1,0.1-0.2,0.1-0.3c0.7,0.2,1.4,0.3,2.1,0.5c0,0.2-0.1,0.3-0.3,0.3
			c-0.6-0.1-1.3-0.2-1.9-0.3C921.1,543.5,921.1,543.5,921.1,543.4z"/>
		<path class="st39" d="M921.1,538.1c-0.1,0-0.1,0-0.2,0c0.1-1.2-0.3-2.5,0.2-3.7C921.1,535.6,921.1,536.9,921.1,538.1z"/>
		<path class="st40" d="M920.1,547.9c-0.1,0.1-0.1,0.2-0.2,0.3c-0.3,1.2,0,2.4,0.6,3.4c1.1,2,0.8,4,0.4,6c-0.1,0.1-0.2,0.2-0.3,0.3
			c-0.3,0.2-0.7,0.3-1.1,0c-0.3-0.4-0.9-0.7-0.9-1.4c0.1-0.4,0.2-0.8,0.3-1.2c-0.1,0.4-0.1,0.7-0.4,1c-1.2-0.2-1.7-1.1-2-2.1
			c0-0.3,0.3-0.5,0.2-0.7c-0.1-0.2-0.3,0.1-0.5,0.1c-0.5,0-0.7-0.3-0.8-0.7c0-0.4,0.2-0.6,0.3-1c-0.2,0.2-0.3,0.5-0.7,0.4
			c-0.5-0.5-0.7-1-0.7-1.4c0,0.2-0.6,0.5,0.2,1c0.3,0.2,0.6,0.9,0.4,1.5c-0.3,0.3-0.6,0-0.9-0.1c0.4,0.4,1,0.4,1.4,0.5
			c0.4,0.3,0.9,0.6,0.7,1.3c-0.2,0.2-0.4,0.2-0.7,0.3c0.4,0.2,0.8,0.1,1.1,0.1c0.5,0.2,1,0.4,0.9,1.1c-0.2,0.3-0.5,0.2-0.8,0.3
			c0.5,0.2,0.9,0.2,1-0.4c1.2,0.4,1.4,0.8,1,1.5c-1.9,0.3-3.9,0.1-5.8,0.1c-0.2,0-0.5-0.1-0.6-0.3c0-3.3,0-6.5,0-9.8
			c0.2-0.1,0.3-0.3,0.5-0.3c2.3-0.2,4.6-0.1,6.9,0C919.9,547.7,920,547.8,920.1,547.9z"/>
		<path class="st27" d="M920.2,542.9c0,1.6,0.1,3.2-0.1,4.8c-2.6,0.1-5.1,0.2-7.7-0.1c0-2.2,0-4.3,0-6.5c0-0.5-0.1-1,0.2-1.4
			c1.2-0.1,2.3-0.6,3.4-1c0.9,1,1.4,2.3,2.5,3.2C919.1,542.3,919.5,542.8,920.2,542.9z"/>
		<path class="st41" d="M919.7,557.7c0.2,0.3,0.5,0,0.7,0.1c1.2-0.2,2.4-0.1,3.6,0c0.1,0,0.1,0,0.2,0c1.2-0.1,2.4-0.2,3.6,0
			c0.4,0,0.9-0.1,1.3-0.1c0.2,0,0.4-0.1,0.6,0c2.2,0.3,4.5,0,6.7,0.1c0.2,1.7,0.2,1.7-1.5,1.7c-7.6,0-15.1,0-22.7,0
			c0-0.6,0-1.1,0-1.7c2.2,0,4.4,0.1,6.7-0.1C919.2,557.5,919.5,557.6,919.7,557.7z"/>
		<path class="st23" d="M912.5,547.7c2.6,0,5.1,0,7.7,0.1c0,0.1,0,0.1,0,0.2c-2.6,0-5.2,0-7.8,0
			C912.4,547.8,912.4,547.7,912.5,547.7z"/>
		<path class="st42" d="M936,541.9c-1.4,1.5-2.9,1.6-4.6,0.6c-0.1-0.3,0.1-0.6,0.2-0.7c1.1-1,1.8-2.3,3.2-2.8c0.2,0,0.3,0.1,0.5,0.1
			c0.4,0.1,0.8,0.3,1.1,0.5C936.4,540.3,936.9,541.2,936,541.9z"/>
		<path class="st43" d="M935.4,539c-0.2,0-0.4,0-0.6,0c-0.7,0.1-1.1,0.7-1.7,1c-0.4,0.2-0.8,0.6-1.3,0.2c0.5-0.8,0.6-1.7,1.3-2.4
			C933.8,538.2,934.6,538.6,935.4,539z"/>
		<path class="st44" d="M924.5,557.6c0.6-1.5,0.7-3.2,1.5-4.7c0.2-0.3-0.1-0.5-0.3-0.7c-0.2-0.2-0.6-0.4-0.6-1
			c1,0.9,1.7,0.5,2.3-0.4c0.5-0.8,0.7-1.7,1-2.9c0.5,1.8,0.2,3.1-0.6,4.2c-0.4,0.6-0.5,1.1-0.5,1.7c0.1,1.3,0.1,2.6,0.2,3.8
			C926.6,558,925.6,558,924.5,557.6z"/>
		<path class="st45" d="M920.7,557.7c0.3-1.5,0.1-3,0.2-4.5c0-0.4-0.3-0.6-0.4-0.9c-0.7-1.3-1.3-2.6-0.5-4.1c0,0.7,0.1,1.3,0.5,1.9
			c0.8,1.7,1.4,2,2.6,1.2c0,0.1,0.1,0.2,0.1,0.2c-1,0.8-0.7,1.7-0.3,2.6c0.4,1.1,0.7,2.3,1,3.5C922.7,558,921.7,558,920.7,557.7z"/>
		<path class="st46" d="M929.8,557.6c-0.2,0.2-0.4,0.4-0.6,0c0.4-0.4,0.8-0.8,1.1-1.1c0-0.1,0.1-0.2,0.2-0.2
			c0.6-0.6,1.1-1.3,1.7-1.9c0-0.3,0.2-0.4,0.4-0.5c0.2-0.4,0.5-0.8,0.7-1.2c-0.1-0.3,0-0.5,0.3-0.7c0.8-0.6,0.7-1.5,0.7-2.4
			c0.5,0.1,0.4,0.5,0.5,0.9c0.2,1-0.3,2.4-1.1,3c-0.2,0.8-0.9,1.2-1.4,1.8c0,0.1-0.1,0.2-0.2,0.2c-0.3,0.3-0.6,0.7-1,1
			c0,0.3-0.1,0.5-0.4,0.5C930.3,557.1,930.1,557.4,929.8,557.6z"/>
		<path class="st47" d="M933.7,553.5c0.8-0.8,0.8-2,1.1-3c0.4,0.3,0.7-0.8,1.1-0.1c0.3,0.6-0.2,1-0.6,1.3c-0.4,0.3-1,0.5-0.6,1.2
			c0,0.7-0.4,0.8-1,0.7C933.7,553.6,933.7,553.6,933.7,553.5z"/>
		<path class="st48" d="M930.8,557c0.1-0.2,0.3-0.3,0.4-0.5c0.6,0,1.2,0.1,1.8,0.1C932.4,557.4,931.6,557.5,930.8,557z"/>
		<path class="st49" d="M932.2,555.5c0.1-0.1,0.1-0.1,0.2-0.2c0.6-0.2,1.2-0.3,2.2-0.2C933.7,555.7,933.1,556.3,932.2,555.5z"/>
		<path class="st50" d="M933.8,553.7c0.3-0.2,0.7-0.5,1-0.7c0.2,0,0.4-0.4,0.6-0.2c0.3,0.2,0,0.4-0.1,0.6
			C934.9,553.7,934.5,554.3,933.8,553.7z"/>
		<path class="st51" d="M930.5,556.3c-0.1,0.1-0.1,0.1-0.2,0.2c-0.7-0.5-0.6-1.1-0.2-2.1C930.3,555.3,930.4,555.8,930.5,556.3z"/>
		<path class="st52" d="M932.6,553.9c0,0.3-0.2,0.4-0.4,0.5c-0.6-0.5-0.7-1.1-0.2-1.7C932.3,553.1,932.5,553.5,932.6,553.9z"/>
		<path class="st53" d="M933.6,552.1c-0.1,0.2-0.2,0.5-0.3,0.7c-0.6-0.4-0.6-1-0.4-1.6C933.5,551.2,933.4,551.8,933.6,552.1z"/>
		<path class="st54" d="M920.7,557.7c1,0.1,2.1,0.1,3.1,0c0.1,0,0.2,0.1,0.3,0.1c-1.2,0.3-2.4,0.4-3.6,0
			C920.5,557.7,920.6,557.7,920.7,557.7z"/>
		<path class="st54" d="M924.5,557.6c1,0.1,2.1,0.1,3.1,0c0.1,0,0.2,0.1,0.2,0.1c-1.2,0.4-2.4,0.3-3.6,0
			C924.3,557.7,924.4,557.7,924.5,557.6z"/>
		<path class="st55" d="M931.7,540.2c0.9-0.2,1.5-0.8,2.3-1.1c0.2-0.1,0.5-0.6,0.8-0.1c-1.2,1.1-2.3,2.2-3.4,3.4
			c-1.4,1.3-1.7,3.2-2.8,4.8c-0.3-1.2-0.9-2.2-1-3.4c-1.2,0.6-2.3,1-3.5,1.3c-1.1,0.3-1.3,0-1-1.1c0.1-0.1,0.2-0.2,0.3-0.3
			c0.5-0.8,1.3-1.4,1.8-2.2c0.2-0.4,0.2-0.7-0.2-0.9c-0.4-0.2-0.7-0.3-0.4-0.7c0.2-0.4,0.7-0.7,1.1-0.5c0.6,0.4,1.2,1,1.9,0.1
			c0.4-0.5,0.9-1.1,1.3-1.6c0.5-0.7,0.7-1.7,1.9-1.6c0.2,0.8,0.2,1.5,0,2.3c-0.4,0.8-0.8,1.7-1.5,2.4c-0.2,0.2-0.2,0.3-0.1,0.5
			c0.2,0.3,0.4,0.1,0.6,0c0.6-0.2,1.1-0.6,1.5-1.1C931.4,540.3,931.6,540.2,931.7,540.2z"/>
		<path class="st56" d="M930.7,538.5c0-0.8,0-1.5,0-2.3C931.2,537,931.1,537.7,930.7,538.5z"/>
		<path class="st57" d="M919.7,557.7c-0.2,0.1-0.5,0.1-0.7,0c-0.4-0.5-0.9-0.9-1.5-1.1l0,0c-0.2-0.5-0.5-0.8-1-1
			c-0.4,0.1-0.3-0.1-0.3-0.4c-0.3-0.4-0.6-0.9-0.9-1.3c-0.2-0.1-0.4-0.2-0.4-0.5c-0.1-1.2-1-1.8-1.8-2.6c0.1-0.1,0.2-0.1,0.3-0.2
			c0.2,0.2,0.4,0.3,0.7,0.5c0.4-0.4-0.2-1.2,0.6-1.5c0,0.9,0.2,1.8,0.5,2.6c0.2,0.1,0.4,0.2,0.4,0.5c0.2,0.3,0.2,0.8,0.8,0.7
			c0.3,0.2,0.4,0.4,0.3,0.8c0.5,0.8,1.1,1.6,1.9,2.1c0.2-0.1,0.3,0,0.3,0.3C919.1,556.9,919.4,557.3,919.7,557.7z"/>
		<path class="st58" d="M914.9,553.4c0.1,0.2,0.3,0.3,0.4,0.5c-1.1,0.5-1.5-0.5-2.3-1C913.9,552.7,914.4,553.2,914.9,553.4z"/>
		<path class="st59" d="M917.5,556.5c0.2,0.2,0.4,0.4,0.4,0.5c0,0.4-0.4,0.2-0.7,0.2c-0.5,0-1,0-1.4-0.6
			C916.5,556.6,917,556.6,917.5,556.5C917.5,556.5,917.5,556.5,917.5,556.5z"/>
		<path class="st60" d="M916.3,555.2c0.1,0.1,0.2,0.3,0.3,0.4c-0.8,0.6-1.3,0.1-1.8-0.5C915.3,555.1,915.8,555.2,916.3,555.2z"/>
		<path class="st61" d="M918.8,556.6c-0.1-0.1-0.2-0.2-0.3-0.3c-0.1-0.6,0.3-1,0.3-1.9C919.4,555.3,919.3,556,918.8,556.6z"/>
		<path class="st62" d="M915.6,552.7c-0.2-0.1-0.4-0.3-0.4-0.5c0.4-0.2,0.3-0.7,0.6-1.2C916.3,551.7,916.1,552.2,915.6,552.7z"/>
		<path class="st63" d="M916.6,554.2c-0.1-0.3-0.2-0.5-0.3-0.8c0.2-0.2,0.4-0.4,0.7-0.8C916.9,553.3,917.5,553.9,916.6,554.2z"/>
	</g>
</g>
</svg>
