<svg id="Layer_1" data-name="Layer 1" xmlns="http://www.w3.org/2000/svg" xmlns:xlink="http://www.w3.org/1999/xlink" viewBox="0 0 474 201"><defs><style>.cls-1{fill:#009245;}.cls-2{fill:#fff;}</style></defs><rect class="cls-1" width="212" height="201"/><image width="648" height="1041" transform="translate(47 17) scale(0.17 0.16)" xlink:href="memorial-logo.png"/><path class="cls-2" d="M236,125.53l9.59-9.41c16.75,13.79,44.27,1.44,17.87-6.74l-9.6-3.36C229,98.49,237.52,70.47,265.21,71.4c8.51,0,17.4,2.75,23.76,7.95L280.54,88c-13.23-10.86-40.6-.3-13.47,7.87L276.48,99c9,3,14.65,7.93,14.65,16.51C291.86,136.62,250.56,139.3,236,125.53Z"/><path class="cls-2" d="M304,73h18.23c3.59,8,13.63,30,16.25,38h.45c2.6-7.88,12.41-30.09,15.84-38H373v60H357.75c-.16-12.31-.22-31,2.14-43h-.52c-3.55,8.81-12.66,29.17-16.68,38h-9.36c-4.07-8.87-13.11-29.09-16.53-38h.08c2.36,11.94,2.31,30.75,2.14,43H304Z"/><path class="cls-2" d="M390,72h25.87c40.34-2.83,39.51,42.59.47,41H407v20H390Zm25,30c17.94,1,17.85-19.91-.45-18H407v18Z"/><path class="cls-2" d="M457,72h17v61H457Z"/></svg>